<?xml version="1.0" encoding="UTF-8" standalone="no"?>
<!DOCTYPE svg PUBLIC "-//W3C//DTD SVG 1.1//EN" "http://www.w3.org/Graphics/SVG/1.1/DTD/svg11.dtd">
<svg width="100%" height="100%" viewBox="0 0 1182 886" version="1.1" xmlns="http://www.w3.org/2000/svg" xmlns:xlink="http://www.w3.org/1999/xlink" xml:space="preserve" xmlns:serif="http://www.serif.com/" style="fill-rule:evenodd;clip-rule:evenodd;stroke-linejoin:round;stroke-miterlimit:2;">
    <g id="Kuromi" transform="matrix(1.915505,0,0,1.915505,234.641898,10.738575)">
        <path d="M354.533,3.653C361.761,3.226 362.841,3.508 368.275,8.696C368.888,9.684 369.5,10.672 370.113,11.66C376.728,30.635 359.36,31.246 357.657,32.714C356.331,33.856 356.47,34.105 355.047,54.436C354.884,55.807 351.656,118.334 351.055,125.451C350.557,129.999 350.749,129.899 350.61,134.505C350.426,137.154 350.242,139.803 350.057,142.451C349.43,146.703 349.707,146.663 349.603,151.506C347.75,162.4 332.468,163.919 330.439,167.451C329.196,169.617 340.525,188.679 341.606,216.497C341.62,219.498 341.635,222.499 341.649,225.5C341.398,252.482 335.959,256.979 334.19,262.426C333.22,265.414 335.242,264.301 338.363,264.961C339.448,265.403 340.532,265.845 341.617,266.288C352.054,272.558 353.969,282.386 346.712,291.659C344.921,293.948 355.545,299.629 346.602,308.6C337.983,317.244 319.995,314.028 316.491,313.723C309.082,313.079 312.661,322.653 288.689,330.98C287.1,331.532 287.676,332.079 287.234,332.559C286.856,333.035 286.051,333.025 285.673,333.5C285.635,333.548 285.991,335.248 284.5,334.158C280.781,331.44 273.591,337.12 272.045,340.036C270.411,343.116 269.98,342.953 266.5,342.81C262.002,342.625 253.56,341.038 253.5,341.082C253.054,341.411 253.076,342.171 252.63,342.5C251.927,342.489 251.225,342.478 250.522,342.467C249.848,339.443 250.035,339.326 249.795,339.208C249.377,339.002 248.733,339.081 248.5,338.676C248.249,338.24 248.872,337.608 248.621,337.172C255.126,337.742 262.836,340.734 265.488,340.667C274.128,340.451 271.581,331.545 268.855,330.188C267.709,329.617 267.941,329.355 262.673,315.427C261.656,312.738 261.288,312.37 257.58,312.967C252.259,313.824 214.174,319.956 190.506,319.244C142.983,317.813 121.458,306.84 117.001,305.292C116.999,305.465 116.978,307.458 116.978,307.458C116.909,307.83 116.184,308.345 116.529,308.501C117.198,308.803 118.008,308.052 118.716,308.243C119.485,308.45 133.69,317.603 149.36,321.979C155.414,323.67 159.159,322.545 156.598,326.574C155.752,327.904 153.952,335.065 146.065,346.405C146.015,346.477 146.065,346.405 145.993,347.5C145.787,347.34 143.41,345.5 143.41,345.5C141.166,345.897 143.237,346.617 144.65,348.437C145.862,351.908 145.623,352.003 147.925,354.919C145.491,359.289 147.615,365.925 135.472,368.178C121.762,370.722 113.706,342.501 136.507,343.352C138.414,343.423 141.643,345.053 143.131,343.148C145.436,340.196 153.12,327.638 150.251,325.927C148.432,324.843 148.031,325.933 125.676,316.081C118.908,313.099 117.771,309.911 115.158,313.223C104.475,326.771 84.066,311.361 95.355,296.384C98.69,291.96 81.236,279.951 78.329,278.91C51.06,269.143 36.044,313.383 74.548,321.209C88.026,323.948 86.674,327.207 99.582,332.181C98.946,333.098 99.102,333.084 98.5,333.952C97.587,335.269 96.85,334.647 96.63,334.74C95.167,333.683 91.585,330.468 90.071,332.174C84.592,338.348 85.093,339.32 84.5,338.945C83.907,338.57 83.805,337.655 83.212,337.28C90.334,325.09 77.027,331.424 58.293,320.838C56.241,319.511 56.248,319.565 55.801,319.16C43.081,305.823 45.318,298.393 46.728,289.555C47.785,287.063 47.761,287.116 48.802,284.67C51.677,280.092 52.056,280.491 56.168,277.032C57.606,275.942 57.571,275.931 57.703,275.85C62.626,273.498 62.443,273.095 67.49,272.352C71.562,272.357 71.459,272.275 75.485,272.587L76.432,272.772C76.485,272.786 76.434,272.771 80.632,274.093C83.336,275.302 83.333,275.285 83.528,275.411C85.354,277.342 85.298,277.388 85.5,277.496C85.811,277.663 86.126,276.868 86.445,277.018C86.978,277.269 86.986,278.148 87.499,278.436C87.762,278.583 88.059,278.212 88.325,278.074C89.248,277.595 88.653,277.427 88.14,276.575C87.79,275.992 88.362,273.583 84.987,273.4C79.017,260.909 77.483,249.531 76.813,246.454C76.59,244.153 76.367,241.853 76.144,239.552C74.6,223.747 77.553,212.416 79.769,204.577C80.854,200.817 82.303,199.345 78.501,198.492C74.439,197.584 74.555,197.541 70.474,196.609C55.575,193.205 52.907,194.296 49.862,182.404C49.697,181.767 48.828,178.419 47.847,174.42C46.712,169.734 45.671,165.297 45.485,164.503C45.352,163.937 44.242,159.205 43.779,157.441L42.866,153.436C41.276,144.424 38.249,132.277 37.794,130.45C37.725,130.048 37.299,127.556 36.752,125.456C35.509,119.461 35.134,118.024 34.967,117.384L34.777,116.445C33.832,112.426 33.075,109.045 32.931,108.4C30.978,98.824 30.928,98.94 28.885,89.4C27.826,84.873 27.947,84.917 26.764,80.436C25.349,75.072 24.133,75.562 18.596,75.148C13.18,72.831 12.18,73.533 8.818,66.39C8.19,63.463 8.204,63.511 8.41,60.487C12.06,43.036 28.514,49.336 29.327,49.814C40.806,56.557 34.342,68.479 35.718,69.193C39.147,70.973 61.22,77.931 63.455,78.635C64.463,78.947 65.471,79.258 66.478,79.57C69.476,80.656 69.382,80.623 72.45,81.655L76.583,83.256L78.398,83.808C79.125,84.023 82.748,85.092 87.395,86.794C125.891,99.616 136.164,104.152 140.28,105.97C146.012,108.501 145.252,117.709 146.773,122.353C147.705,125.2 159.858,115.795 183.506,110.532C184.534,110.293 185.562,110.054 186.59,109.814L188.496,109.468C191.5,108.896 191.462,109.047 194.496,108.443C216.375,106.793 217.732,105.901 243.439,108.822C243.812,108.877 247.187,109.881 247.556,108.536C247.888,107.326 247.699,107.319 247.235,100.542C246.046,91.607 246.957,91.627 248.832,87.769C251.432,85.142 251.388,85.169 251.784,84.81C254.554,82.373 259.466,79.072 261.537,77.555C261.712,77.416 262.632,76.688 263.803,75.925C270.514,71.405 282.143,63.923 283.746,62.892C283.961,62.773 285.147,62.122 286.356,61.286C286.539,61.16 287.849,60.254 288.667,59.754C307.981,48.222 324.333,38.415 341.62,28.713L344.315,27.24C345.046,25.943 345.606,26.029 345.117,24.63C343.876,21.081 343.825,21.159 343.36,17.499C343.723,13.998 343.918,14.106 344.936,10.712C347.504,6.864 347.647,7.041 351.612,4.746L354.533,3.653Z" style="fill:rgb(55,54,54);fill-opacity:0.98;"/>
        <path d="M312.809,217.321C295.329,192.063 275.431,188.653 271.431,187.967C253.948,184.971 232.379,210.193 225.492,210.436C222.924,210.526 198.116,203.307 197.709,203.038C195.27,201.427 195.339,200.001 177.531,200.808C172.329,201.044 156.844,207.829 151.803,211.933C128.352,231.027 126.285,251.642 125.336,262.488C124.844,290.431 138.836,301.715 141.701,304.256C143.062,305.463 147.1,309.043 162.659,313.089C172.551,315.66 160.756,314.276 160.571,314.229C155.987,313.068 156.16,312.692 151.506,311.572C127.429,305.774 120.991,301.18 116.806,299.137C107.14,290.203 94.251,283.167 85.903,255.382C80.269,236.626 82.872,211.858 84.265,206.44C85.799,200.48 91.385,202.384 98.944,196.761C102.082,194.428 97.2,196.377 75.391,190.93C61.378,187.43 57.204,187.442 55.835,183.39C52.903,174.713 32.351,80.716 31.936,78.428C31.25,74.638 31.94,73.032 35.492,74.516C46.693,79.197 111.318,98.511 136.595,110.327C144.034,113.805 142.241,142.283 148.122,131.311C155.596,117.365 256.802,87.98 309.529,148.475C334.515,177.142 335.141,204.846 335.24,205.544C341.946,252.989 325.456,262.026 317.51,280.506C315.922,284.198 300.817,295.594 295.496,297.419C295.126,297.546 294.98,296.522 294.61,296.649C308.537,288.386 310.853,285.901 317.834,272.914C319.948,268.981 332.618,245.408 312.809,217.321Z" style="fill:rgb(90,91,91);fill-opacity:1;"/>
        <path d="M225.581,311.377C225.922,307.464 230.876,308.657 235.128,294.381C237.957,284.883 244.724,288.361 245.705,278.516C246.503,270.512 238.531,281.794 236.284,283.147C224.217,290.416 212.836,279.052 211.393,277.61C205.3,271.526 204.692,303.529 213.863,310.208C217.674,312.984 209.771,312.379 209.493,312.397C205.971,312.622 179.114,314.344 165.393,310.957C114.374,298.363 127.611,235.632 153.218,217.096C181.018,196.972 194.143,206.722 222.575,215.221C235.131,218.975 253.862,189.355 270.422,192.837C291.875,197.349 316.975,221.114 318.388,247.507C319.613,270.379 314.779,296.351 250.397,308.016C249.257,308.223 227.543,311.428 225.581,311.377Z" style="fill:rgb(254,254,254);"/>
        <path d="M99.582,332.181C86.674,327.207 88.026,323.948 74.548,321.209C36.044,313.383 51.06,269.143 78.329,278.91C81.236,279.951 98.69,291.96 95.355,296.384C84.066,311.361 104.475,326.771 115.158,313.223C117.771,309.911 118.908,313.099 125.676,316.081C148.031,325.933 148.432,324.843 150.251,325.927C153.12,327.638 145.436,340.196 143.131,343.148C141.643,345.053 138.414,343.423 136.507,343.352C113.706,342.501 121.762,370.722 135.472,368.178C147.615,365.925 145.491,359.289 147.925,354.919C148.94,354.541 183.845,348.873 215.814,330.99C218.054,329.737 218.259,330.755 246.408,340.675C248.07,341.261 246.885,343.417 246.77,343.625C240.285,355.425 238.688,364.507 218.421,377.364C216.459,378.433 214.496,379.503 212.534,380.572C198.602,386.286 197.592,383.966 192.694,387.747C183.895,394.539 202.424,387.886 202.232,390.559C201.9,395.186 195.035,402.33 194.205,403.193C193.894,403.428 190.32,406.13 190.32,406.13C184.7,409.176 180.019,409.664 179.7,409.839C175.675,412.053 182.519,412.764 182.539,416.499C182.667,440.712 140.616,458.838 130.948,422.422C130.014,411.584 130.357,410.109 132.73,406.69C136.648,401.885 136.871,402.057 139.233,396.386C140.483,393.383 139.469,388.495 138.288,387.82C132.699,384.627 140.713,408.733 100.466,410.047C100.075,410.06 91.739,407.981 95.68,412.349C96.279,413.013 99.451,416.528 97.212,423.42C87.214,454.19 44.3,445.514 44.775,407.498C45.216,372.297 71.529,358.584 73.797,356.915C78.593,353.388 76.254,364.155 79.896,367.082C85.708,371.753 82.879,363.049 82.858,362.488C82.461,351.932 81.467,350.712 89.876,339.869C95.501,334.172 101.379,339.594 104.714,336.746C108.073,333.877 100.114,332.354 99.582,332.181Z" style="fill:rgb(254,254,254);"/>
        <path d="M352.151,35.538C351.483,43.605 347.597,90.512 345.369,136.493C344.685,150.61 345.859,152.261 336.726,157.891C329.106,162.588 327.523,164.397 323.987,159.187C304.173,129.996 282.522,118.84 253.498,109.503C251.066,108.721 251.944,92.858 252.051,92.356C253.701,84.625 337.601,37.441 347.458,30.427C353.375,26.217 351.899,32.749 352.151,35.538Z" style="fill:rgb(90,91,91);fill-opacity:0.99;"/>
        <path d="M211.519,137.609C212.788,137.491 222.637,136.575 227.448,137.748C228.798,138.078 237.551,140.212 243.415,144.608C262.416,158.852 256.261,183.954 240.608,187.809C236.508,188.819 238.019,196.687 230.566,198.812C230.005,198.972 223.838,200.731 223.544,200.776C208.368,203.066 204.545,197.764 203.59,196.439C200.501,192.155 199.707,193.356 196.448,192.758C179.556,189.66 173.515,167.812 184.038,153.187C193.532,139.992 206.21,138.737 211.519,137.609Z" style="fill:rgb(37,39,39);fill-opacity:0.99;"/>
        <path d="M3.71,323.209C0.648,317.491 6.055,281.576 9.44,282.819C13.121,284.17 35.715,305.243 36.211,305.769C40.351,310.153 37.604,310.932 33.684,313.769C31.202,315.565 31.614,317.104 34.716,322.366C42.334,335.291 64.508,340.133 67.443,340.774C72.864,341.855 74.36,341.134 76.577,340.951C80.368,339.967 80.508,340.178 83.212,337.28C83.805,337.655 83.907,338.57 84.5,338.945C85.093,339.32 84.592,338.348 90.071,332.174C91.585,330.468 95.167,333.683 96.63,334.74C91.874,334.673 86.789,334.322 89.876,339.869C81.467,350.712 82.461,351.932 82.858,362.488C82.879,363.049 85.708,371.753 79.896,367.082C76.254,364.155 78.593,353.388 73.797,356.915C71.529,358.584 45.216,372.297 44.775,407.498C44.3,445.514 87.214,454.19 97.212,423.42C99.451,416.528 96.279,413.013 95.68,412.349C91.739,407.981 100.075,410.06 100.466,410.047C140.713,408.733 132.699,384.627 138.288,387.82C139.469,388.495 140.483,393.383 139.233,396.386C136.871,402.057 136.648,401.885 132.73,406.69C132.139,406.452 132.091,405.464 131.5,405.226C131.41,405.189 129.046,406.427 128.171,408.224C127.706,409.181 127.794,409.24 128.937,421.5C129.027,422.474 129.01,422.466 129.083,422.5C130.002,422.921 130.035,422.004 130.948,422.422C140.616,458.838 182.667,440.712 182.539,416.499C182.519,412.764 175.675,412.053 179.7,409.839C180.019,409.664 184.7,409.176 190.32,406.13C190.32,406.13 193.894,403.428 194.205,403.193C195.297,403.584 194.435,404.482 195.5,404.863C196.259,405.135 195.88,404.493 196.5,404.015C198.259,402.658 198.476,402.913 199.27,401.5C204.576,392.053 204.642,390.624 204.691,389.578C204.858,385.985 207.011,386.027 207.526,385.658C209.378,384.331 209.359,384.492 211.5,383.846C213.61,383.209 213.51,382.571 212.534,380.572C214.496,379.503 216.459,378.433 218.421,377.364C218.78,377.555 221.352,378.924 223.504,377.515C225.841,375.987 225.284,375.498 225.5,375.413C235.776,371.368 246.159,350.951 247.418,348.475C249.629,344.128 248.826,343.863 249.035,343.5C249.335,342.977 250.221,342.991 250.522,342.467C251.225,342.478 251.927,342.489 252.63,342.5L253.832,343.942L253.417,344.43C248.573,355.381 246.431,361.3 234.302,373.297C229.713,377.754 225.546,380.238 223.497,381.496C222.364,382.225 220.586,383.031 220.325,383.149C210.644,387.443 210.595,387.335 209.924,387.961C204.81,392.73 210.875,397.628 193.629,410.685C187.276,414.877 188.843,416.107 188.266,419.462C185.147,437.583 168.92,447.069 163.485,447.311C145.451,448.116 141.325,447.411 133.81,440.183C133.442,439.842 131.839,438.36 129.968,435.235C129.246,433.941 124.835,426.033 124.64,417.496C124.572,414.494 126.802,409.821 120.471,412.415C119.321,413.008 117.712,413.209 117.464,413.24C110.443,414.648 106.429,415.155 105.462,415.278C100.231,415.939 108.286,432.65 86.613,444.712C69.29,454.353 33.322,442.291 39.908,396.561C43.326,372.826 61.18,358.41 61.952,357.981C64.046,356.819 63.894,356.557 66.38,356.364C67.515,356.275 70.2,355.479 70.527,355.382C71.515,355.089 71.506,354.93 71.5,354.841C71.428,353.679 70.452,354.172 70.38,353.015C72.812,350.444 73.056,350.728 74.819,347.634C76.494,344.693 69.322,344.481 65.5,344.031C40.464,341.085 33.281,326.247 24.788,315.321C22.484,312.357 37.927,311.6 32.966,307.178C28.236,302.962 27.889,303.472 27.5,303.089C22.006,297.668 22.144,297.621 16.34,292.5C13.824,290.281 14.781,288.421 11.5,288.797C11.16,288.836 10.81,288.415 10.5,288.56C9.533,289.012 7.914,312.426 7.77,314.508C7.676,315.859 6.245,320.818 11.398,317.003C14.843,314.452 16.788,324.179 29.5,336.264C32.351,338.975 43.939,346.339 48.5,347.245C48.922,347.329 51.811,347.902 53.5,349.231C57.935,352.718 59.383,349.585 64.499,353.506C63.797,354.002 63.094,354.498 62.392,354.995C49.721,353.331 45.482,350.275 38.659,347.212C37.479,346.52 30.362,342.352 24.806,337.179L20.887,333.145C12.54,322.817 13.579,322 12.606,321.387C10.654,320.157 10.585,321.26 6.351,323.143C4.991,323.435 5.05,323.38 3.71,323.209Z" style="fill:rgb(53,52,52);fill-opacity:0.98;"/>
        <path d="M228.614,192.494C228.155,188.112 228.867,187.72 227.39,186.683C225.431,185.308 225.665,192.007 225.682,192.491C225.906,198.887 223.854,199.136 217.548,198.168C215.046,197.783 215.879,189.333 214.799,188.114C211.44,184.327 213.688,197.351 212.252,198.012C207.662,200.124 204.035,189.569 202.513,189.715C174.69,192.38 174.032,149.587 205.564,141.74C251.571,130.291 267.096,178.21 237.509,185.534C234.658,186.24 236.795,191.371 231.391,195.336C229.055,197.05 228.828,195.359 228.614,192.494Z" style="fill:rgb(252,174,183);fill-opacity:0.99;"/>
        <path d="M117.001,305.292C121.458,306.84 142.983,317.813 190.506,319.244C214.174,319.956 252.259,313.824 257.58,312.967C261.288,312.37 261.656,312.738 262.673,315.427C267.941,329.355 267.709,329.617 268.855,330.188C271.581,331.545 274.128,340.451 265.488,340.667C262.836,340.734 255.126,337.742 248.621,337.172C233.484,333.63 233.806,332.887 221.365,326.764C219.252,325.724 217.866,322.765 214.482,326.48C209.678,331.753 194.563,335.1 189.376,338.242C185.584,340.539 175.662,343.895 174.44,344.309C164.268,347.75 164.329,347.874 163.436,348.14C158.03,349.75 157.718,348.111 152.46,350.271C150.506,351.074 149.786,347.47 148.404,347.654C147.116,347.824 147.228,347.579 145.993,347.5C146.065,346.405 146.015,346.477 146.065,346.405C153.952,335.065 155.752,327.904 156.598,326.574C159.159,322.545 155.414,323.67 149.36,321.979C133.69,317.603 119.485,308.45 118.716,308.243C118.008,308.052 117.198,308.803 116.529,308.501C116.184,308.345 116.909,307.83 116.978,307.458C116.978,307.458 116.999,305.465 117.001,305.292Z" style="fill:rgb(90,91,91);fill-opacity:1;"/>
        <path d="M332.403,293.339C326.31,298.811 350.545,294.044 344.345,303.408C337.292,314.062 314.645,305.86 309.67,310.684C307.409,312.876 294.585,325.311 275.433,330.119C272.663,330.815 270.163,322.327 266.381,313.552C264.239,308.584 273.953,312.996 303.334,296.227C321.601,285.802 328.909,267.409 336.373,269.917C350.747,274.748 347.361,290.097 336.455,292.158C334.371,292.552 334.435,292.491 332.403,293.339Z" style="fill:rgb(254,254,254);"/>
        <path d="M64.499,353.506C59.383,349.585 57.935,352.718 53.5,349.231C51.811,347.902 48.922,347.329 48.5,347.245C43.939,346.339 32.351,338.975 29.5,336.264C16.788,324.179 14.843,314.452 11.398,317.003C6.245,320.818 7.676,315.859 7.77,314.508C7.914,312.426 9.533,289.012 10.5,288.56C10.81,288.415 11.16,288.836 11.5,288.797C14.781,288.421 13.824,290.281 16.34,292.5C22.144,297.621 22.006,297.668 27.5,303.089C27.889,303.472 28.236,302.962 32.966,307.178C37.927,311.6 22.484,312.357 24.788,315.321C33.281,326.247 40.464,341.085 65.5,344.031C69.322,344.481 76.494,344.693 74.819,347.634C73.056,350.728 72.812,350.444 70.38,353.015C68.757,353.147 67.135,353.278 65.512,353.41L64.499,353.506Z" style="fill:rgb(90,90,90);fill-opacity:0.99;"/>
        <path d="M292.585,220.01C295.799,218.638 298.38,216.096 297.182,219.428C296.524,221.256 293.389,223.58 293.924,225.402C294.49,227.325 299.699,238.749 295.064,248.266C291.869,254.825 275.114,261.884 269.802,238.434C266.498,223.846 280.208,223.394 288.377,214.384C292.469,209.87 292.812,206.21 295.085,209.7C297.098,212.79 292.146,216.549 292.585,220.01Z" style="fill:rgb(64,63,63);fill-opacity:0.99;"/>
        <g transform="matrix(-0.954987,0.296648,0.296648,0.954987,371.043161,-62.1601)">
            <path d="M292.585,220.01C295.799,218.638 298.38,216.096 297.182,219.428C296.524,221.256 293.389,223.58 293.924,225.402C294.49,227.325 299.699,238.749 295.064,248.266C291.869,254.825 275.114,261.884 269.802,238.434C266.498,223.846 280.208,223.394 288.377,214.384C292.469,209.87 292.812,206.21 295.085,209.7C297.098,212.79 292.146,216.549 292.585,220.01Z" style="fill:rgb(64,63,63);fill-opacity:0.99;"/>
        </g>
        <path d="M248.621,337.172C248.872,337.608 248.249,338.24 248.5,338.676C248.733,339.081 249.377,339.002 249.795,339.208C250.035,339.326 249.848,339.443 250.522,342.467C250.221,342.991 249.335,342.977 249.035,343.5C248.826,343.863 249.629,344.128 247.418,348.475C246.159,350.951 235.776,371.368 225.5,375.413C225.284,375.498 225.841,375.987 223.504,377.515C221.352,378.924 218.78,377.555 218.421,377.364C238.688,364.507 240.285,355.425 246.77,343.625C246.885,343.417 248.07,341.261 246.408,340.675C218.259,330.755 218.054,329.737 215.814,330.99C183.845,348.873 148.94,354.541 147.925,354.919C145.623,352.003 145.862,351.908 144.65,348.437L145.993,347.5C147.228,347.579 147.116,347.824 148.404,347.654C149.786,347.47 150.506,351.074 152.46,350.271C157.718,348.111 158.03,349.75 163.436,348.14C164.329,347.874 164.268,347.75 174.44,344.309C175.662,343.895 185.584,340.539 189.376,338.242C194.563,335.1 209.678,331.753 214.482,326.48C217.866,322.765 219.252,325.724 221.365,326.764C233.806,332.887 233.484,333.63 248.621,337.172Z" style="fill:rgb(54,53,53);fill-opacity:0.99;"/>
        <path d="M287.234,332.559C294.781,337.172 294.229,337.889 295.682,341.45L295.966,342.371C297.628,349.136 295.243,351.994 290.25,356.093C287.414,357.343 287.462,357.262 284.47,358.255C274.071,358.212 272.368,352.647 270.798,349.419C269.858,343.266 267.742,344.613 261.507,344.336C260.537,344.238 259.567,344.141 258.598,344.044C256.169,343.611 256.233,343.294 253.832,343.942L252.63,342.5C253.076,342.171 253.054,341.411 253.5,341.082C253.56,341.038 262.002,342.625 266.5,342.81C269.98,342.953 270.411,343.116 272.045,340.036C273.591,337.12 280.781,331.44 284.5,334.158C285.991,335.248 285.635,333.548 285.673,333.5C286.051,333.025 286.856,333.035 287.234,332.559Z" style="fill:rgb(34,35,36);fill-opacity:0.96;"/>
        <path d="M25.618,51.076C26.658,51.617 26.637,51.431 27.682,52.149C31.213,54.572 31.524,53.994 31.788,54.252C31.92,54.381 31.688,54.441 32.757,56.34C32.812,56.436 36.314,67.048 29.322,70.072C9.274,78.742 8.92,57.578 13.5,54.317C19.012,50.392 19.175,49.118 25.618,51.076Z" style="fill:rgb(92,93,93);fill-opacity:0.99;"/>
        <path d="M349.112,11.349C354.007,3.706 364.473,5.746 366.954,13.275C371.934,28.385 354,31.142 348.736,23.347C345.021,17.846 346.007,17.243 349.112,11.349Z" style="fill:rgb(93,94,94);fill-opacity:0.99;"/>
        <path d="M290.722,350.668C278.815,363.543 265.518,341.28 280.543,336.663C287.653,334.479 296.899,341.237 290.722,350.668Z" style="fill:rgb(251,177,186);fill-opacity:0.99;"/>
        <path d="M238.822,268.794C225.91,281.508 215.782,257.618 229.493,254.468C237.588,252.608 245.76,260.445 238.822,268.794Z" style="fill:rgb(33,35,35);fill-opacity:0.99;"/>
        <path d="M95.819,306.452C96.458,300.244 95.899,299.18 101.649,296.904C103.773,296.064 107.455,296.654 109.336,297.806C122.944,306.139 101.885,326.018 95.819,306.452Z" style="fill:rgb(251,177,186);fill-opacity:0.99;"/>
        <path d="M143.587,355.504C140.012,375.116 117.106,357.58 128.872,348.948C133.975,345.204 143.151,346.158 143.587,355.504Z" style="fill:rgb(251,177,187);fill-opacity:0.99;"/>
        <path d="M212.813,294.478C212.457,288.506 212.14,288.39 212.73,287.683C212.822,287.572 213.286,287.016 214.515,287.46C229.013,292.701 230.125,291.258 230.216,292.576C230.633,298.599 222.189,306.156 221.171,307.068C220.27,307.874 216.346,310.147 212.813,294.478Z" style="fill:rgb(241,201,216);"/>
        <path d="M193.773,180.304C188.042,169.557 196.362,166.177 197.587,165.893C210.498,162.899 206.652,192.497 193.773,180.304Z" style="fill:rgb(58,58,59);fill-opacity:0.99;"/>
        <path d="M244.697,173.542C237.585,189.717 225.8,167.816 235.568,162.65C236.615,162.096 239.968,161.741 242.279,163.753C245.051,166.168 244.735,172.736 244.697,173.542Z" style="fill:rgb(57,58,59);fill-opacity:0.99;"/>
        <path d="M212.534,380.572C213.51,382.571 213.61,383.209 211.5,383.846C209.359,384.492 209.378,384.331 207.526,385.658C207.011,386.027 204.858,385.985 204.691,389.578C204.642,390.624 204.576,392.053 199.27,401.5C198.476,402.913 198.259,402.658 196.5,404.015C195.88,404.493 196.259,405.135 195.5,404.863C194.435,404.482 195.297,403.584 194.205,403.193C195.035,402.33 201.9,395.186 202.232,390.559C202.424,387.886 183.895,394.539 192.694,387.747C197.592,383.966 198.602,386.286 212.534,380.572Z" style="fill:rgb(48,47,47);fill-opacity:0.99;"/>
        <path d="M236.647,266.619C227.451,275.336 221.697,258.333 230.5,257.503C237.255,256.865 239.597,261.998 236.647,266.619Z" style="fill:rgb(250,179,189);fill-opacity:0.99;"/>
        <path d="M99.582,332.181C100.114,332.354 108.073,333.877 104.714,336.746C101.379,339.594 95.501,334.172 89.876,339.869C86.789,334.322 91.874,334.673 96.63,334.74C96.85,334.647 97.587,335.269 98.5,333.952C99.102,333.084 98.946,333.098 99.582,332.181Z" style="fill:rgb(41,41,40);fill-opacity:0.99;"/>
        <path d="M132.73,406.69C130.357,410.109 130.014,411.584 130.948,422.422C130.035,422.004 130.002,422.921 129.083,422.5C129.01,422.466 129.027,422.474 128.937,421.5C127.794,409.24 127.706,409.181 128.171,408.224C129.046,406.427 131.41,405.189 131.5,405.226C132.091,405.464 132.139,406.452 132.73,406.69Z" style="fill:rgb(41,40,40);fill-opacity:0.99;"/>
        <path d="M84.987,273.4C88.362,273.583 87.79,275.992 88.14,276.575C88.653,277.427 89.248,277.595 88.325,278.074C88.059,278.212 87.762,278.583 87.499,278.436C86.986,278.148 86.978,277.269 86.445,277.018C86.126,276.868 85.811,277.663 85.5,277.496C85.298,277.388 85.354,277.342 83.528,275.411C85.151,275.337 85.186,275.435 85.281,275.331C85.281,275.331 85.011,273.554 84.987,273.4Z" style="fill:rgb(37,38,37);fill-opacity:0.85;"/>
        <path d="M0,309.5L0,304.5C0.495,305.065 1.433,305.101 1.929,305.665C2.12,305.884 1.778,306.233 1.774,306.524C1.753,308.365 1.976,308.355 1.895,308.49C1.296,309.494 0.615,308.468 0,309.5Z" style="fill:none;"/>
        <path d="M223.519,313.568C221.343,312.891 220.437,311.913 222.487,310.841C223.287,310.422 223.443,310.586 223.5,310.645C224.41,311.6 223.587,311.995 224.5,312.953L223.519,313.568Z" style="fill:rgb(41,40,38);fill-opacity:0.99;"/>
        <path d="M255.651,309.772C255.942,309.693 266.085,306.951 259.362,310.366C257.528,311.298 257.506,310.66 255.651,309.772Z" style="fill:rgb(70,70,70);fill-opacity:0.99;"/>
        <path d="M144.65,348.437C143.237,346.617 141.166,345.897 143.41,345.5C143.41,345.5 145.787,347.34 145.993,347.5L144.65,348.437Z" style="fill:rgb(59,57,60);fill-opacity:0.99;"/>
        <path d="M344.435,3.435C346.114,3.599 346.187,3.477 346.243,3.612C346.651,4.602 345.562,5.161 345.433,5.227C344.097,5.912 344.57,4.855 344.435,3.435Z" style="fill:none;"/>
        <path d="M64.499,353.506L65.512,353.41C64.472,353.938 63.432,354.466 62.392,354.995C63.094,354.498 63.797,354.002 64.499,353.506Z" style="fill:rgb(28,28,28);fill-opacity:0.92;"/>
        <path d="M356.852,53.5C356.879,53.501 357.564,52.265 358.332,53.56C358.55,53.928 357.805,55.277 357.343,55.296C357.343,55.296 356.891,53.644 356.852,53.5Z" style="fill:none;"/>
    </g>
</svg>
