<?xml version="1.0" encoding="UTF-8" standalone="no"?><!DOCTYPE svg PUBLIC "-//W3C//DTD SVG 1.1//EN" "http://www.w3.org/Graphics/SVG/1.1/DTD/svg11.dtd"><svg width="100%" height="100%" viewBox="0 0 39 20" version="1.1" xmlns="http://www.w3.org/2000/svg" xmlns:xlink="http://www.w3.org/1999/xlink" xml:space="preserve" xmlns:serif="http://www.serif.com/" style="fill-rule:evenodd;clip-rule:evenodd;stroke-linejoin:round;stroke-miterlimit:2;"><g id="Capa1"><g id="SI-1-.png" serif:id="SI(1).png"><path d="M38.529,17.182c-0.14,3.19 -1.507,2.665 -9.245,2.665c-27.487,-0 -27.556,0.051 -28.244,-0.378c-1.134,-0.708 -1.134,-1.027 -0.948,-16.687c0.039,-3.309 1.506,-2.745 9.033,-2.745c27.847,-0 27.938,-0.054 28.522,0.397c1.316,1.015 0.743,1.944 0.883,16.748Z" style="fill:#dfca61;"/><path d="M0.694,17.664c-0.008,-1.229 -0.084,-12.681 -0.007,-15.364c0.004,-0.153 0.039,-1.366 1.022,-1.613c1.037,-0.261 31.11,-0.077 33.815,-0.06c3.17,0.019 2.41,1.389 2.41,4.555c-0,12.876 0.117,13.062 -0.686,13.741c-0.456,0.386 -0.542,0.339 -26.205,0.339c-9.249,0 -10.016,0.316 -10.35,-1.598Z" style="fill:#fee67a;"/><path d="M24.104,9.265c-0.058,0.417 -0.735,5.254 -3.423,3.993c-2.537,-1.191 -0.06,-9.554 3.147,-5.733c0.33,0.393 1.574,-0.86 1.366,0.054c-0.04,0.176 -0.084,0.146 -0.885,0.783c-0.222,0.177 -0.127,0.218 -0.205,0.903Z" style="fill:#dcc85f;"/><path d="M14.966,10.45c0.698,0.35 0.388,-0.472 1.236,-1.835c3.268,-5.258 2.534,3.941 2.015,4.463c-1.148,1.153 -0.05,-3.504 -0.229,-4.771c-0.347,-2.45 -2.931,5.64 -3.811,5.015c-0.369,-0.262 0.293,-6.306 0.947,-6.319c0.668,-0.013 0.075,2.294 -0.157,3.449Z" style="fill:#dcc85f;"/><path d="M20.481,10.471c0.036,-0.17 0.39,-1.853 0.731,-2.049c0.222,-0.128 0.652,0.229 1.12,0.301c0.375,0.057 0.362,-0.009 0.721,0.032c0.667,0.076 -0.021,2.703 -1.025,3.56c-0.146,0.125 -1.598,1.324 -1.546,-1.843Z" style="fill:#fee67a;"/><path d="M22.063,7.845c-0.747,-0.913 0.507,-0.884 0.961,-0.252c0.046,0.065 0.234,0.802 -0.961,0.252Z" style="fill:#fde579;"/></g><g id="SI.png"></g></g></svg>