<?xml version="1.0" encoding="UTF-8" standalone="no"?><!DOCTYPE svg PUBLIC "-//W3C//DTD SVG 1.1//EN" "http://www.w3.org/Graphics/SVG/1.1/DTD/svg11.dtd"><svg width="100%" height="100%" viewBox="0 0 39 20" version="1.1" xmlns="http://www.w3.org/2000/svg" xmlns:xlink="http://www.w3.org/1999/xlink" xml:space="preserve" xmlns:serif="http://www.serif.com/" style="fill-rule:evenodd;clip-rule:evenodd;stroke-linejoin:round;stroke-miterlimit:2;"><g id="Capa1"><g id="SI-1-.png" serif:id="SI(1).png"></g><g id="SI.png"><path d="M36.846,0.058c1.941,0.796 1.705,1.4 1.683,16.62c-0.006,3.867 -1.861,3.149 -14.174,3.149c-22.833,0 -23.427,0.246 -24.115,-1.425c-0.001,-0.002 -0.765,-16.427 0.435,-17.73c0.764,-0.83 1.15,-0.657 13.359,-0.657c19.773,-0 19.756,-0.007 22.811,0.043Z" style="fill:#e2cd64;"/><path d="M36.611,19.159c-0.803,0.087 -0.805,0.049 -32.415,0.08c-0.275,0 -2.918,0.003 -3.31,-0.905c-0.113,-0.262 -0.585,-16.281 0.231,-17.217c0.478,-0.548 0.631,-0.513 32.598,-0.506c0.415,0 3.793,-0.638 4.158,1.418c0.048,0.269 0.017,15.327 0.022,15.371c0.159,1.324 -0.481,1.402 -1.285,1.76Z" style="fill:#fee579;"/><path d="M18.877,9.934c0.131,0.283 1.983,4.281 -1.475,3.602c-1.258,-0.247 -1.596,-2.016 -0.714,-1.443c4.273,2.778 0.044,-3.308 0.581,-4.497c0.866,-1.917 3.276,0.079 2.039,0.149c-0.949,0.053 -1.48,-0.329 -1.288,0.548c0.032,0.145 0.063,0.122 0.857,1.64Z" style="fill:#ddc95f;"/><path d="M20.743,9.477c0.283,-2.762 0.74,-2.667 0.926,-2.554c0.284,0.174 -0.241,6.499 -0.92,6.452c-0.368,-0.026 -0.035,-3.587 -0.006,-3.898Z" style="fill:#ddc95f;"/></g></g></svg>